<svg width="20" height="20" viewBox="0 0 20 20" fill="none" xmlns="http://www.w3.org/2000/svg">
<g clip-path="url(#clip0_136_163)">
<path d="M10.9074 1.77508V0.151367H9.32403V1.77508C4.89227 2.17645 1.40736 5.90837 1.40736 10.443C1.40736 12.723 2.29482 14.794 3.73328 16.3481L2.20694 18.0248L3.37782 19.0904L4.90969 17.4073C6.36398 18.4975 8.16265 19.1514 10.1157 19.1514C12.0687 19.1514 13.8674 18.4975 15.3217 17.4073L16.8536 19.0904L18.0244 18.0248L16.4981 16.3481C17.9366 14.794 18.824 12.723 18.824 10.443C18.824 5.90837 15.3391 2.17645 10.9074 1.77508ZM2.99069 10.443C2.99069 6.51399 6.18665 3.31803 10.1157 3.31803C14.0447 3.31803 17.2407 6.51399 17.2407 10.443C17.2407 14.3721 14.0447 17.568 10.1157 17.568C6.18665 17.568 2.99069 14.3721 2.99069 10.443ZM1.94569 4.2047L0.62915 3.32674C1.58073 2.06641 2.77378 0.996867 4.14336 0.195701L4.98807 1.53283C3.80611 2.21603 2.77298 3.12724 1.94569 4.2047ZM15.2433 1.53283L16.088 0.195701C17.4576 0.996867 18.6514 2.06641 19.6022 3.32674L18.2857 4.2047C17.4584 3.12724 16.4253 2.21524 15.2433 1.53283ZM9.32403 5.69303H10.9074V12.0264H9.32403V5.69303ZM9.32403 13.6097H10.9074V15.193H9.32403V13.6097Z" fill="black"/>
</g>
<defs>
<clipPath id="clip0_136_163">
<rect width="19" height="19" fill="white" transform="translate(0.615723 0.151367)"/>
</clipPath>
</defs>
</svg>
