<svg width="20" height="21" viewBox="0 0 20 21" fill="none" xmlns="http://www.w3.org/2000/svg">
<g clip-path="url(#clip0_136_177)">
<path d="M16.062 0.776611H4.18701C2.22289 0.776611 0.624512 2.45911 0.624512 4.52661V17.0266C0.624512 19.0941 2.22289 20.7766 4.18701 20.7766H16.062C18.0261 20.7766 19.6245 19.0941 19.6245 17.0266V4.52661C19.6245 2.45911 18.0261 0.776611 16.062 0.776611ZM18.8328 17.0266C18.8328 18.6349 17.5899 19.9433 16.062 19.9433H4.18701C2.6591 19.9433 1.41618 18.6349 1.41618 17.0266V4.52661C1.41618 2.91828 2.6591 1.60994 4.18701 1.60994H16.062C17.5899 1.60994 18.8328 2.91828 18.8328 4.52661V17.0266ZM12.2873 5.55328L5.3943 12.8091C4.87101 13.3591 4.58285 14.0916 4.58285 14.8716V16.1933C4.58285 16.4233 4.76018 16.6099 4.97868 16.6099H6.23426C6.96339 16.6099 7.67747 16.2983 8.19364 15.7558L15.0867 8.49994C15.8586 7.68744 15.8586 6.36578 15.0867 5.55411C14.3401 4.76661 13.0347 4.76661 12.2881 5.55411L12.2873 5.55328ZM7.63314 15.1658C7.26501 15.5541 6.75439 15.7758 6.23347 15.7758H5.37372V14.8708C5.37372 14.3141 5.57955 13.7908 5.95322 13.3974L11.1814 7.89411L12.8605 9.66161L7.63235 15.1649L7.63314 15.1658ZM14.5262 7.90995L13.421 9.07328L11.7419 7.30578L12.8471 6.14244C13.2951 5.67078 14.0781 5.67078 14.5262 6.14244C14.9893 6.62994 14.9893 7.42244 14.5262 7.90995Z" fill="black"/>
</g>
<defs>
<clipPath id="clip0_136_177">
<rect width="19" height="20" fill="white" transform="translate(0.624512 0.776611)"/>
</clipPath>
</defs>
</svg>
