<svg width="27" height="26" viewBox="0 0 27 26" fill="none" xmlns="http://www.w3.org/2000/svg">
<path d="M25.191 12.565C24.313 10.6662 20.8699 4.47427 13.3697 4.47427C5.86949 4.47427 2.42641 10.6662 1.54838 12.565C1.43052 12.8195 1.36951 13.0961 1.36951 13.376C1.36951 13.6558 1.43052 13.9324 1.54838 14.1869C2.42641 16.0837 5.86949 22.2757 13.3697 22.2757C20.8699 22.2757 24.313 16.0837 25.191 14.1849C25.3086 13.9308 25.3695 13.6545 25.3695 13.375C25.3695 13.0954 25.3086 12.8192 25.191 12.565ZM13.3697 20.2977C7.06252 20.2977 4.11945 14.9909 3.36943 13.3858C4.11945 11.759 7.06252 6.45221 13.3697 6.45221C19.6618 6.45221 22.6059 11.7363 23.3699 13.375C22.6059 15.0137 19.6618 20.2977 13.3697 20.2977Z" fill="black"/>
<path d="M13.3696 8.43011C12.3807 8.43011 11.414 8.72012 10.5917 9.26347C9.76945 9.80681 9.12857 10.5791 8.75012 11.4826C8.37167 12.3862 8.27265 13.3804 8.46559 14.3396C8.65852 15.2988 9.13473 16.1799 9.83401 16.8715C10.5333 17.563 11.4242 18.034 12.3942 18.2248C13.3641 18.4156 14.3695 18.3176 15.2831 17.9434C16.1968 17.5691 16.9777 16.9353 17.5271 16.1221C18.0765 15.309 18.3698 14.3529 18.3698 13.3749C18.3682 12.064 17.8409 10.8072 16.9035 9.88016C15.9661 8.95316 14.6953 8.43169 13.3696 8.43011ZM13.3696 16.3418C12.7763 16.3418 12.1962 16.1678 11.7029 15.8418C11.2095 15.5158 10.825 15.0525 10.5979 14.5103C10.3709 13.9682 10.3114 13.3717 10.4272 12.7961C10.543 12.2206 10.8287 11.692 11.2483 11.277C11.6678 10.8621 12.2024 10.5795 12.7844 10.4651C13.3663 10.3506 13.9695 10.4093 14.5177 10.6339C15.0659 10.8584 15.5345 11.2387 15.8641 11.7266C16.1938 12.2145 16.3697 12.7881 16.3697 13.3749C16.3697 14.1618 16.0536 14.9165 15.491 15.4729C14.9284 16.0293 14.1653 16.3418 13.3696 16.3418Z" fill="black"/>
</svg>
