<svg width="20" height="20" viewBox="0 0 20 20" fill="none" xmlns="http://www.w3.org/2000/svg">
<g clip-path="url(#clip0_169_679)">
<path d="M9.86511 0.413086C7.52614 0.414753 5.27038 1.28125 3.53178 2.84588V1.20475C3.53178 0.99479 3.44837 0.793426 3.29991 0.64496C3.15144 0.496493 2.95008 0.413086 2.74011 0.413086C2.53015 0.413086 2.32879 0.496493 2.18032 0.64496C2.03185 0.793426 1.94845 0.99479 1.94845 1.20475V3.57975C1.94845 4.20964 2.19867 4.81373 2.64407 5.25913C3.08947 5.70453 3.69356 5.95475 4.32345 5.95475H6.69845C6.90841 5.95475 7.10977 5.87135 7.25824 5.72288C7.40671 5.57441 7.49011 5.37305 7.49011 5.16309C7.49011 4.95312 7.40671 4.75176 7.25824 4.60329C7.10977 4.45483 6.90841 4.37142 6.69845 4.37142H4.32345C4.29675 4.36746 4.27031 4.36191 4.24428 4.35479C5.53432 3.05553 7.2353 2.24427 9.05687 2.05949C10.8784 1.8747 12.7077 2.32785 14.2324 3.34159C15.757 4.35532 16.8826 5.86679 17.417 7.61801C17.9513 9.36922 17.8613 11.2516 17.1624 12.9439C16.4634 14.6361 15.1988 16.0333 13.5843 16.897C11.9699 17.7606 10.1058 18.0372 8.31013 17.6795C6.51449 17.3218 4.89866 16.352 3.73845 14.9356C2.57824 13.5192 1.94557 11.744 1.94845 9.91309C1.94845 9.70312 1.86504 9.50176 1.71657 9.35329C1.56811 9.20483 1.36674 9.12142 1.15678 9.12142C0.946816 9.12142 0.745452 9.20483 0.596986 9.35329C0.44852 9.50176 0.365112 9.70312 0.365112 9.91309C0.365112 11.792 0.922278 13.6287 1.96615 15.191C3.01002 16.7533 4.49372 17.9709 6.22962 18.6899C7.96552 19.409 9.87565 19.5971 11.7185 19.2305C13.5613 18.864 15.254 17.9592 16.5826 16.6306C17.9112 15.302 18.816 13.6093 19.1826 11.7664C19.5491 9.92362 19.361 8.01349 18.642 6.27759C17.9229 4.5417 16.7053 3.058 15.143 2.01412C13.5808 0.970251 11.744 0.413086 9.86511 0.413086Z" fill="black"/>
<path d="M9.86509 5.16309C9.65513 5.16309 9.45377 5.24649 9.3053 5.39496C9.15683 5.54343 9.07343 5.74479 9.07343 5.95475V9.91309C9.07347 10.123 9.15691 10.3244 9.30538 10.4728L11.6804 12.8478C11.8297 12.992 12.0297 13.0718 12.2372 13.07C12.4448 13.0682 12.6434 12.9849 12.7902 12.8382C12.9369 12.6914 13.0202 12.4928 13.022 12.2852C13.0238 12.0777 12.944 11.8777 12.7998 11.7284L10.6568 9.58534V5.95475C10.6568 5.74479 10.5734 5.54343 10.4249 5.39496C10.2764 5.24649 10.0751 5.16309 9.86509 5.16309Z" fill="black"/>
</g>
<defs>
<clipPath id="clip0_169_679">
<rect width="19" height="19" fill="white" transform="translate(0.365112 0.413086)"/>
</clipPath>
</defs>
</svg>
