<svg width="20" height="20" viewBox="0 0 20 20" fill="none" xmlns="http://www.w3.org/2000/svg">
<g clip-path="url(#clip0_136_173)">
<path d="M10.1021 0.465088C7.76308 0.466755 5.50732 1.33325 3.76872 2.89788V1.25675C3.76872 1.04679 3.68531 0.845428 3.53684 0.696962C3.38838 0.548495 3.18701 0.465088 2.97705 0.465088C2.76709 0.465088 2.56572 0.548495 2.41726 0.696962C2.26879 0.845428 2.18538 1.04679 2.18538 1.25675V3.63175C2.18538 4.26164 2.43561 4.86573 2.88101 5.31113C3.32641 5.75653 3.9305 6.00675 4.56038 6.00675H6.93539C7.14535 6.00675 7.34671 5.92335 7.49518 5.77488C7.64364 5.62641 7.72705 5.42505 7.72705 5.21509C7.72705 5.00513 7.64364 4.80376 7.49518 4.6553C7.34671 4.50683 7.14535 4.42342 6.93539 4.42342H4.56038C4.53369 4.41946 4.50725 4.41391 4.48122 4.4068C5.77126 3.10753 7.47224 2.29627 9.29381 2.11149C11.1154 1.92671 12.9446 2.37986 14.4693 3.39359C15.994 4.40732 17.1196 5.9188 17.6539 7.67001C18.1883 9.42122 18.0983 11.3036 17.3993 12.9959C16.7003 14.6881 15.4357 16.0853 13.8213 16.949C12.2068 17.8126 10.3427 18.0892 8.54707 17.7315C6.75143 17.3738 5.1356 16.404 3.97539 14.9876C2.81518 13.5712 2.18251 11.796 2.18538 9.96509C2.18538 9.75513 2.10198 9.55376 1.95351 9.4053C1.80504 9.25683 1.60368 9.17342 1.39372 9.17342C1.18375 9.17342 0.982391 9.25683 0.833925 9.4053C0.685458 9.55376 0.602051 9.75513 0.602051 9.96509C0.602051 11.844 1.15922 13.6807 2.20309 15.243C3.24696 16.8053 4.73066 18.0229 6.46656 18.7419C8.20246 19.461 10.1126 19.6491 11.9554 19.2825C13.7982 18.916 15.491 18.0112 16.8196 16.6826C18.1482 15.354 19.053 13.6613 19.4195 11.8184C19.7861 9.97563 19.5979 8.06549 18.8789 6.3296C18.1599 4.5937 16.9422 3.11 15.38 2.06613C13.8177 1.02225 11.981 0.465088 10.1021 0.465088Z" fill="black"/>
<path d="M10.102 5.21509C9.89201 5.21509 9.69064 5.2985 9.54218 5.44696C9.39371 5.59543 9.3103 5.79679 9.3103 6.00675V9.96509C9.31035 10.175 9.39378 10.3764 9.54226 10.5248L11.9173 12.8998C12.0666 13.044 12.2665 13.1238 12.4741 13.122C12.6817 13.1202 12.8803 13.0369 13.027 12.8902C13.1738 12.7434 13.2571 12.5448 13.2589 12.3372C13.2607 12.1297 13.1809 11.9297 13.0367 11.7804L10.8936 9.63734V6.00675C10.8936 5.79679 10.8102 5.59543 10.6618 5.44696C10.5133 5.2985 10.3119 5.21509 10.102 5.21509Z" fill="black"/>
</g>
<defs>
<clipPath id="clip0_136_173">
<rect width="19" height="19" fill="white" transform="translate(0.602051 0.465088)"/>
</clipPath>
</defs>
</svg>
