<svg width="20" height="20" viewBox="0 0 20 20" fill="none" xmlns="http://www.w3.org/2000/svg">
<g clip-path="url(#clip0_215_243)">
<path d="M10.6698 1.95427V0.330566H9.08648V1.95427C4.65473 2.35565 1.16981 6.08757 1.16981 10.6222C1.16981 12.9022 2.05727 14.9732 3.49573 16.5273L1.96939 18.204L3.14027 19.2696L4.67214 17.5865C6.12643 18.6767 7.9251 19.3306 9.87814 19.3306C11.8312 19.3306 13.6299 18.6767 15.0841 17.5865L16.616 19.2696L17.7869 18.204L16.2606 16.5273C17.699 14.9732 18.5865 12.9022 18.5865 10.6222C18.5865 6.08757 15.1016 2.35565 10.6698 1.95427ZM2.75314 10.6222C2.75314 6.69319 5.9491 3.49723 9.87814 3.49723C13.8072 3.49723 17.0031 6.69319 17.0031 10.6222C17.0031 14.5513 13.8072 17.7472 9.87814 17.7472C5.9491 17.7472 2.75314 14.5513 2.75314 10.6222ZM1.70814 4.3839L0.391602 3.50594C1.34318 2.24561 2.53623 1.17607 3.90581 0.3749L4.75052 1.71202C3.56856 2.39523 2.53543 3.30644 1.70814 4.3839ZM15.0058 1.71202L15.8505 0.3749C17.2201 1.17607 18.4139 2.24561 19.3647 3.50594L18.0481 4.3839C17.2208 3.30644 16.1877 2.39444 15.0058 1.71202ZM9.08648 5.87223H10.6698V12.2056H9.08648V5.87223ZM9.08648 13.7889H10.6698V15.3722H9.08648V13.7889Z" fill="black"/>
</g>
<defs>
<clipPath id="clip0_215_243">
<rect width="19" height="19" fill="white" transform="translate(0.37793 0.330566)"/>
</clipPath>
</defs>
</svg>
